/* XPM */
static char *_587527674826[] = {
/* columns rows colors chars-per-pixel */
"16 16 114 2 ",
"   c #47474A",
".  c #47484B",
"X  c #49494B",
"o  c #48484C",
"O  c #48494C",
"+  c #49494D",
"@  c #4A4A4C",
"#  c #4A4B4D",
"$  c #48494E",
"%  c #48494F",
"&  c #4C4C4F",
"*  c #4D4D4F",
"=  c #4D4D50",
"-  c #4E4E50",
";  c #4E4E51",
":  c #4F4F51",
">  c #4E4F52",
",  c #505051",
"<  c #535251",
"1  c #515153",
"2  c #535355",
"3  c #6B6555",
"4  c #6E6755",
"5  c #6F6853",
"6  c #6F6955",
"7  c #61605B",
"8  c #716A53",
"9  c #736B53",
"0  c #716A55",
"q  c #776F54",
"w  c #797053",
"e  c #5F5F61",
"r  c #626264",
"t  c #6A6A6C",
"y  c #6C6C6E",
"u  c #6E6E70",
"i  c #727273",
"p  c #777571",
"a  c #727274",
"s  c #817653",
"d  c #887C56",
"f  c #8B7E58",
"g  c #FFCE2C",
"h  c #FFCF2F",
"j  c #FFD02F",
"k  c #EFC438",
"l  c #F2C636",
"z  c #F4C734",
"x  c #F5C835",
"c  c #F8CA33",
"v  c #F1C539",
"b  c #F0C63B",
"n  c #F2C63A",
"m  c #FFD031",
"M  c #FFD032",
"N  c #FFD033",
"B  c #FFD135",
"V  c #FFD036",
"C  c #FFD136",
"Z  c #FFD139",
"A  c #FFD23B",
"S  c #FFD33C",
"D  c #FFD33E",
"F  c #8A805E",
"G  c #94865C",
"H  c #A9944C",
"J  c #AC954D",
"K  c #B79D4A",
"L  c #A79459",
"P  c #A6955C",
"I  c #BDA149",
"U  c #BDA24A",
"Y  c #C6A847",
"T  c #C8A947",
"R  c #CEAD44",
"E  c #CFAF47",
"W  c #C1A548",
"Q  c #CAAB49",
"!  c #C5AE65",
"~  c #C8AF60",
"^  c #FFD240",
"/  c #FFD440",
"(  c #FFD344",
")  c #FFD347",
"_  c #FFD446",
"`  c #FFD447",
"'  c #FFD54A",
"]  c #FFD54D",
"[  c #FFD64D",
"{  c #E2C051",
"}  c #E6C350",
"|  c #E6C969",
" . c #848486",
".. c #8B8B8D",
"X. c #8F8F91",
"o. c #96979A",
"O. c #9A9A9E",
"+. c #9C9C9D",
"@. c #9D9D9E",
"#. c gray68",
"$. c #AEAEAF",
"%. c #B3B3B4",
"&. c #B7B7B8",
"*. c #BCBCBD",
"=. c #BFBFC0",
"-. c #C5C5C6",
";. c LightGray",
":. c #D8D8D8",
">. c gray85",
",. c #E7E7E7",
"<. c #EAEAEA",
"1. c #ECECEC",
"2. c gray94",
"3. c None",
/* pixels */
"3.3.3.3.3.3.3.3.3.3.3.3.3.3.3.3.",
"3.3.3.3.3.3.3.3.3.3.3.3.3.3.3.3.",
"3.3.3.3.3.3.3.3.3.3.3.3.3.3.3.3.",
"3.3.3.3.| ~ L d f P ! 3.3.3.3.3.",
"3.3.} G 6 p X.O.o. .7 3 F { 3.3.",
"3.D J + . u 1.-.$.,.i . + J A 3.",
"3.b 5 + + y 2.%...:.*.2 + 8 b 3.",
"D W * X r &.<.;.*.:.$.1 X ; T / ",
"g Q 4 * ; e i @.@.t * . * 8 E j ",
") B k K 9 * + # + + 1 w I b A ] ",
"3.3.` M l I q ; < s Y x B ] 3.3.",
"3.3.3.3.` M x Y R c B ' 3.3.3.3.",
"3.3.3.3.3.3.^ j M ` 3.3.3.3.3.3.",
"3.3.3.3.3.3.3.3.3.3.3.3.3.3.3.3.",
"3.3.3.3.3.3.3.3.3.3.3.3.3.3.3.3.",
"3.3.3.3.3.3.3.3.3.3.3.3.3.3.3.3."
};
